<svg width="32" height="32" viewBox="0 0 32 32" fill="none" xmlns="http://www.w3.org/2000/svg">
<path d="M15.9997 5.33301C17.4142 5.33301 18.7707 5.89491 19.7709 6.8951C20.7711 7.8953 21.333 9.25185 21.333 10.6663C21.333 12.0808 20.7711 13.4374 19.7709 14.4376C18.7707 15.4378 17.4142 15.9997 15.9997 15.9997C14.5852 15.9997 13.2286 15.4378 12.2284 14.4376C11.2282 13.4374 10.6663 12.0808 10.6663 10.6663C10.6663 9.25185 11.2282 7.8953 12.2284 6.8951C13.2286 5.89491 14.5852 5.33301 15.9997 5.33301ZM15.9997 18.6663C21.893 18.6663 26.6663 21.053 26.6663 23.9997V26.6663H5.33301V23.9997C5.33301 21.053 10.1063 18.6663 15.9997 18.6663Z" fill="#E9C500"/>
</svg>
