<svg width="54" height="78" viewBox="0 0 54 78" fill="none" xmlns="http://www.w3.org/2000/svg">
<path d="M7.71429 0.5H46.2857C48.3317 0.5 50.2938 1.31275 51.7405 2.75946C53.1872 4.20617 54 6.16833 54 8.21429V69.9286C54 71.9745 53.1872 73.9367 51.7405 75.3834C50.2938 76.8301 48.3317 77.6429 46.2857 77.6429H7.71429C5.66833 77.6429 3.70617 76.8301 2.25946 75.3834C0.812752 73.9367 0 71.9745 0 69.9286V8.21429C0 6.16833 0.812752 4.20617 2.25946 2.75946C3.70617 1.31275 5.66833 0.5 7.71429 0.5ZM7.71429 8.21429V23.6429H46.2857V8.21429H7.71429ZM7.71429 31.3571V39.0714H15.4286V31.3571H7.71429ZM23.1429 31.3571V39.0714H30.8571V31.3571H23.1429ZM38.5714 31.3571V39.0714H46.2857V31.3571H38.5714ZM7.71429 46.7857V54.5H15.4286V46.7857H7.71429ZM23.1429 46.7857V54.5H30.8571V46.7857H23.1429ZM38.5714 46.7857V54.5H46.2857V46.7857H38.5714ZM7.71429 62.2143V69.9286H15.4286V62.2143H7.71429ZM23.1429 62.2143V69.9286H30.8571V62.2143H23.1429ZM38.5714 62.2143V69.9286H46.2857V62.2143H38.5714Z" fill="#3C92E7"/>
</svg>
