<svg width="61" height="61" viewBox="0 0 61 61" fill="none" xmlns="http://www.w3.org/2000/svg">
<path d="M53.3704 0.642578H6.70378C3.03711 0.642578 0.0371094 3.64258 0.0371094 7.30924V53.9759C0.0371094 57.6426 3.03711 60.6426 6.70378 60.6426H53.3704C57.0371 60.6426 60.0371 57.6426 60.0371 53.9759V7.30924C60.0371 3.64258 57.0371 0.642578 53.3704 0.642578ZM13.3704 13.9759H20.0371V20.6426H13.3704V13.9759ZM13.3704 27.3092H20.0371V33.9759H13.3704V27.3092ZM13.3704 40.6426H20.0371V47.3092H13.3704V40.6426ZM46.7038 47.3092H26.7038V40.6426H46.7038V47.3092ZM46.7038 33.9759H26.7038V27.3092H46.7038V33.9759ZM46.7038 20.6426H26.7038V13.9759H46.7038V20.6426Z" fill="#3C92E7"/>
</svg>
