<svg width="81" height="121" viewBox="0 0 81 121" fill="none" xmlns="http://www.w3.org/2000/svg">
<path opacity="0.98" fill-rule="evenodd" clip-rule="evenodd" d="M0.218757 39.2666L0.403641 40.059C0.694173 38.6328 0.773408 37.6027 0.773408 36.8896C0.773408 36.15 0.588525 35.3313 0.377229 35.0407C0.00746153 34.5653 -0.0189503 34.6974 0.00746171 36.4934C0.0338737 37.5763 0.113109 38.8176 0.218757 39.2666ZM0.377229 31.8713C0.720584 32.6108 0.720584 32.558 0.746996 30.5507C0.746996 29.3886 0.694172 27.9887 0.588524 27.4341C0.456465 26.6681 0.377229 26.5361 0.218757 26.9058C0.113109 27.17 0.00746135 28.2264 0.00746139 29.2301C0.00746144 30.2602 0.165933 31.4223 0.377229 31.8713ZM0.852645 46.2922C1.16959 47.2431 1.90912 48.7485 2.49019 49.5937C3.07125 50.4389 4.31261 51.918 5.26344 52.8688C6.21427 53.8196 7.87823 55.2195 8.96112 55.9326C10.044 56.6721 11.9985 57.8342 13.3191 58.4681C14.6397 59.1284 16.8847 60.1057 18.3374 60.6603C19.79 61.215 22.2992 61.9809 23.8839 62.3771C25.4686 62.7733 28.2154 63.3279 29.9586 63.5921C32.4678 63.9882 34.66 64.0939 40.3913 64.0675C46.7038 64.0675 48.1036 63.9882 51.0882 63.4864C52.9899 63.1695 55.6575 62.5884 57.0309 62.2186C58.4043 61.8489 60.6757 61.1093 62.0492 60.6075C63.4226 60.0793 65.6412 59.1284 66.9354 58.4681C68.2296 57.8342 70.2105 56.6721 71.2933 55.959C72.3762 55.2195 73.9874 53.8989 74.859 53.0009C75.7305 52.1293 76.8134 50.8879 77.2624 50.2276C77.7114 49.5673 78.4246 48.3788 78.8207 47.5864C79.2169 46.794 79.7188 45.2886 79.9036 44.2849C80.1149 43.2813 80.247 42.4097 80.2206 42.3832C80.1678 42.3304 79.8772 42.9907 79.5603 43.8359C79.2433 44.6547 78.3982 46.2394 77.685 47.3223C76.9719 48.4052 75.6249 50.0163 74.7005 50.8615C73.7761 51.7331 72.1121 53.0273 71.0292 53.7404C69.9463 54.4799 68.0447 55.5892 66.8033 56.1967C65.5619 56.8042 63.6075 57.7022 62.4453 58.1512C61.2832 58.6266 58.8005 59.3926 56.8988 59.868C54.9972 60.3698 52.0918 60.9773 50.4279 61.2414C47.998 61.6112 45.8586 61.7168 39.731 61.7168C32.8639 61.7168 31.7282 61.6376 28.638 61.0829C26.7364 60.766 23.831 60.0793 22.1671 59.6038C20.5031 59.102 17.7035 58.1248 15.9603 57.3852C14.2171 56.6457 11.7344 55.3779 10.4138 54.612C9.09318 53.8196 7.29716 52.5519 6.39916 51.7595C5.50115 50.9936 4.12773 49.5937 3.38819 48.6429C2.62225 47.6921 1.61859 46.0809 1.11676 45.0773C0.509289 43.7831 0.24517 43.4397 0.24517 43.8887C0.24517 44.2585 0.535701 45.3414 0.852645 46.2922ZM0.852644 22.6271C1.16959 23.4987 1.98836 24.9778 2.64866 25.9286C3.33537 26.8794 4.62955 28.3585 5.55397 29.2037C6.47839 30.0753 7.95746 31.2374 8.82906 31.8185C9.70065 32.3731 11.2325 33.2183 12.2626 33.7201C13.2927 34.1955 15.2472 35.0143 16.6206 35.5161C17.994 36.0444 20.1862 36.7575 21.5068 37.1537C22.8274 37.5234 25.2573 38.1309 26.9212 38.4743C28.5852 38.8176 31.1472 39.2402 32.5998 39.4251C34.0525 39.61 37.4332 39.7685 40.1272 39.7685C43.2174 39.7421 46.2284 39.5836 48.3149 39.2931C50.1374 39.0553 52.9899 38.5535 54.6538 38.1837C56.3178 37.814 59.408 36.9424 61.5209 36.2557C63.6339 35.5426 66.2487 34.5653 67.3315 34.0635C68.4144 33.5617 70.2104 32.5844 71.2933 31.8713C72.3762 31.1846 73.8553 30.0489 74.5684 29.3886C75.2815 28.7283 76.3644 27.5133 76.9719 26.721C77.6058 25.9286 78.5038 24.4231 79.0056 23.4195C79.798 21.7291 79.8772 21.3593 79.8772 19.0615C79.8772 16.8165 79.798 16.3939 79.0849 14.9676C78.6623 14.096 77.5266 12.5377 76.5493 11.5341C75.5985 10.504 73.8553 9.02494 72.7196 8.23258C71.5575 7.44022 69.4445 6.25168 67.9918 5.56497C66.5392 4.87826 63.8716 3.8482 62.0492 3.26714C60.2267 2.68607 57.5063 1.94654 55.9744 1.62959C54.4425 1.31265 51.907 0.890056 50.2958 0.67876C48.6847 0.467465 44.7757 0.229756 41.5799 0.124108C37.7766 0.0184602 34.66 0.0712858 32.5998 0.282582C30.8566 0.467465 27.7136 0.942883 25.6006 1.36547C23.4877 1.78807 20.3447 2.55401 18.6015 3.08225C16.8583 3.61049 13.9002 4.79903 11.9985 5.72345C9.99118 6.70069 7.58769 8.15335 6.18786 9.20983C4.86726 10.2135 3.28254 11.7454 2.59583 12.5906C1.93553 13.4622 1.14317 14.862 0.826231 15.6808C0.40364 16.7636 0.245169 17.7673 0.271581 19.1143C0.271581 20.4085 0.456464 21.5442 0.852644 22.6271ZM9.30447 20.6462C9.09318 20.0651 8.98753 19.0615 9.06676 18.005C9.146 16.9221 9.43653 15.7864 9.85912 14.9676C10.2289 14.1753 11.3118 12.8547 12.5796 11.6661C14.1114 10.2135 15.3528 9.31548 17.2809 8.31182C18.7335 7.57229 21.1634 6.54222 22.6953 6.01398C24.2272 5.51215 26.4194 4.90468 27.5815 4.66697C28.7437 4.42926 31.0679 4.05949 32.7319 3.8482C34.3958 3.6369 37.6445 3.47843 39.9159 3.47843C42.2138 3.47843 45.2511 3.61049 46.651 3.74255C48.0772 3.90102 50.4807 4.27079 52.0126 4.56132C53.5445 4.87827 56.0272 5.53857 57.5591 6.04039C59.091 6.54222 61.5209 7.54587 62.9472 8.31182C64.7696 9.26265 66.1694 10.2399 67.5428 11.5341C68.9427 12.8547 69.735 13.8583 70.3161 15.0997C71.0028 16.4731 71.1613 17.1334 71.1613 18.5332C71.1613 19.8274 70.9764 20.6198 70.4746 21.7027C70.1048 22.495 69.2068 23.7892 68.4937 24.5816C67.7805 25.3739 66.4864 26.5097 65.6148 27.1171C64.7432 27.751 63.3169 28.5962 62.4453 29.0452C61.5737 29.4678 59.7249 30.2073 58.3515 30.6563C56.9781 31.1053 54.5482 31.7656 52.937 32.109C51.3259 32.4788 49.0809 32.9014 47.9188 33.1126C46.6246 33.2975 43.4815 33.4296 39.8631 33.4296C35.3995 33.4296 33.2601 33.3239 31.2792 32.9806C29.8266 32.7165 27.5023 32.2146 26.1289 31.8713C24.7555 31.5279 22.5633 30.8676 21.2427 30.4186C19.9221 29.9432 17.9412 29.0716 16.7791 28.4906C15.6169 27.8567 13.9002 26.6417 12.8437 25.6645C11.84 24.7136 10.7043 23.4195 10.3345 22.7592C9.93836 22.0989 9.48935 21.148 9.30447 20.6462ZM1.61859 43.0964C1.75065 43.5982 2.09401 44.3113 2.33171 44.6811C2.75431 45.315 2.75431 45.2886 2.91278 43.4926C3.01843 42.4625 3.1769 40.9306 3.28254 40.059C3.46743 38.5271 3.44102 38.4479 2.64866 37.6819C2.19965 37.2329 1.77706 36.9424 1.72424 37.0216C1.67142 37.1009 1.56577 38.2894 1.48653 39.6628C1.38088 41.1419 1.43371 42.5417 1.61859 43.0964ZM1.80347 33.456C1.90912 33.8786 2.19965 34.5653 2.43736 34.9615C2.67507 35.3841 2.91278 35.701 2.93919 35.701C2.99201 35.701 2.99201 34.7238 2.9656 33.5088C2.9656 32.3203 2.91278 30.9469 2.91278 30.4715C2.88636 29.996 2.62225 29.3357 2.27889 28.9396L1.69783 28.2793C1.645 31.6864 1.69783 33.007 1.80347 33.456ZM4.20696 46.2658C4.4975 47.0582 4.9465 47.9562 5.26344 48.2467L5.79168 48.7485C5.79168 45.9225 5.97656 44.9452 6.34633 44.1529C6.63686 43.4926 6.84816 42.6738 6.84816 42.3304C6.84816 41.9607 6.39916 41.2739 5.79168 40.6137C5.21062 40.0326 4.65597 39.5836 4.60314 39.6628C4.52391 39.7421 4.2862 40.508 4.0749 41.3796C3.86361 42.2512 3.67872 43.3869 3.67872 43.8887C3.70514 44.3906 3.91643 45.4735 4.20696 46.2658ZM4.20696 35.3048C4.2862 36.1764 4.49749 37.1273 4.65597 37.4178C4.81444 37.7083 5.23703 38.1573 5.63321 38.395C6.00298 38.6592 6.37274 38.8705 6.45198 38.8705C6.53122 38.8705 6.5048 38.712 6.39916 38.5271C6.31992 38.3686 6.16145 36.8896 6.08221 35.252C5.92374 32.4259 5.89733 32.2675 5.13138 31.5015C4.70879 31.0261 4.25979 30.6828 4.12773 30.6828C4.02208 30.6828 3.96926 31.3695 3.96926 32.1882C3.99567 33.0334 4.10132 34.4333 4.20696 35.3048ZM6.95381 49.9635C7.1651 50.3333 7.79899 50.8879 8.40647 51.2048C9.01394 51.5482 9.54218 51.7859 9.595 51.7331C9.64783 51.7067 9.83271 50.7558 9.99118 49.6201C10.1497 48.458 10.5722 47.0582 10.942 46.3186C11.4703 45.2886 11.5495 44.998 11.259 44.5754C11.1005 44.3113 10.3081 43.7567 9.54218 43.3341C8.80265 42.9115 8.0367 42.621 7.90464 42.7002C7.77258 42.7794 7.45563 43.4661 7.24434 44.2057C7.03304 44.9716 6.79534 46.4243 6.7161 47.4543C6.61045 48.8014 6.68969 49.4881 6.95381 49.9635ZM7.53487 38.8705C7.74617 39.5308 8.16876 40.3495 8.51211 40.6665C8.82906 41.0098 9.41012 41.4588 9.8063 41.6701C10.2289 41.8814 10.5458 41.9607 10.5458 41.8286C10.5458 41.723 10.4402 41.2211 10.2817 40.7193C10.1497 40.2175 9.99118 38.7648 9.96477 37.497C9.88553 35.4897 9.8063 35.1464 9.22524 34.5125C8.85547 34.1163 8.24799 33.6409 7.8254 33.4296L7.11228 33.0598C7.13869 36.6519 7.32357 38.2102 7.53487 38.8705ZM11.9193 53.2122C12.6852 53.9517 13.3719 54.4007 13.8209 54.4271C14.4284 54.4535 14.5076 54.3479 14.5076 53.5819C14.5076 53.1329 14.6397 52.0236 14.7982 51.152C14.9566 50.2804 15.3528 49.0655 15.7226 48.4316C16.1452 47.7185 16.2772 47.2166 16.1188 46.9789C15.9867 46.8205 15.1943 46.3715 14.3227 46.0281C13.2399 45.5791 12.6852 45.4734 12.3947 45.6583C12.1834 45.8168 11.7872 46.5035 11.5231 47.2166C11.259 47.9298 10.9684 49.3032 10.8892 50.2804L10.7307 52.05L11.9193 53.2122ZM11.0741 39.3987C11.1533 40.3495 11.4703 41.5645 11.7608 42.1455C12.0249 42.7002 12.5531 43.3605 12.9229 43.6246C13.2927 43.8623 14.0058 44.2057 14.5076 44.3906L15.432 44.7075C15.0887 43.3605 14.8774 42.1984 14.7453 41.2475C14.6397 40.2967 14.5076 39.0025 14.5076 38.3422C14.5076 37.1801 14.4548 37.1273 13.187 36.4141C12.4475 36.018 11.6287 35.701 11.3382 35.701C10.8892 35.701 10.81 35.8595 10.8364 36.6783C10.8628 37.2329 10.9684 38.4479 11.0741 39.3987ZM15.9867 55.4308C16.2508 55.5628 17.1752 55.959 17.994 56.3288C18.8392 56.6721 19.5787 56.9098 19.6051 56.8306C19.658 56.7514 19.8164 55.6156 19.9485 54.3215C20.1334 52.7632 20.4503 51.4426 20.8993 50.4917L21.586 49.0391C18.0732 47.6392 17.8884 47.6128 17.2809 47.9826C16.8847 48.2203 16.4621 48.8542 16.198 49.6201C15.9603 50.3068 15.7226 51.8387 15.6433 53.0273C15.5113 54.9289 15.5377 55.1931 15.9867 55.4308ZM15.9603 42.9643C16.1716 43.5454 16.6998 44.3641 17.1224 44.8132C17.545 45.2357 18.4958 45.896 19.2354 46.2658C19.9749 46.6356 20.6352 46.8733 20.688 46.794C20.7673 46.7148 20.6352 46.0545 20.4239 45.3414C20.2126 44.6019 19.9485 42.9115 19.8428 41.5381C19.6844 39.3987 19.5787 39.0289 19.1297 38.844C18.8392 38.7384 17.9676 38.395 17.2016 38.1045C16.0131 37.6291 15.8018 37.6027 15.6962 37.946C15.6169 38.1573 15.5641 39.1346 15.5641 40.1118C15.5905 41.0891 15.749 42.3833 15.9603 42.9643ZM21.3747 57.0947C21.6653 57.3852 22.5369 57.8078 23.2764 58.0191C24.0423 58.2568 24.9668 58.4153 25.3365 58.3625C25.9704 58.2833 25.9968 58.1776 26.1553 56.1703C26.2609 55.0082 26.4987 53.5819 26.71 53.0009C26.9212 52.4198 27.3174 51.601 27.608 51.2048C27.8721 50.8087 28.057 50.4389 27.9777 50.3861C27.8985 50.3332 26.9477 50.0955 25.8648 49.8578C24.7819 49.6201 23.6462 49.4352 23.3556 49.4088C23.0651 49.4088 22.5897 49.673 22.2992 49.9899C22.0086 50.3068 21.5596 51.469 21.2955 52.5783C21.0578 53.6876 20.8465 55.0346 20.8465 55.5628C20.8465 56.2231 21.0314 56.7514 21.3747 57.0947ZM21.0842 43.4926C21.1899 44.2057 21.5596 45.3942 21.9294 46.1337C22.5369 47.3751 22.6425 47.4808 24.148 47.9033C25.0196 48.1411 26.1553 48.3524 26.6571 48.3524L27.5815 48.3524C26.6043 45.4206 26.393 44.1793 26.4194 42.9643C26.4194 41.5381 26.3138 41.0098 25.9704 40.7193C25.7063 40.508 24.5442 40.1118 23.382 39.8741C22.1935 39.6364 21.1634 39.4779 21.0314 39.5572C20.9257 39.61 20.8465 40.2175 20.8729 40.9042C20.8993 41.5909 21.005 42.753 21.0842 43.4926ZM27.3703 58.4417C27.4231 58.6794 27.8457 58.9964 28.3211 59.1548C28.7965 59.3133 30.0643 59.4718 31.1472 59.5246L33.1281 59.6038C33.3922 56.3288 33.6035 54.8497 33.7884 54.1894C33.9732 53.5291 34.343 52.5519 34.6071 51.9972L35.109 51.02C31.5169 50.7294 30.302 50.6766 30.0907 50.703C29.8794 50.7558 29.3776 51.1256 28.955 51.5482C28.5588 51.9972 28.0041 53.1065 27.7136 54.1102C27.4231 55.0874 27.1854 56.3816 27.2118 56.9627C27.2382 57.5437 27.291 58.204 27.3703 58.4417ZM27.7136 43.7567C27.8193 44.7603 28.1362 46.1337 28.4003 46.7676C28.6908 47.4015 29.1927 48.1939 29.5624 48.5108C30.0907 48.9598 30.7246 49.1183 32.5998 49.2768C33.894 49.3824 35.0033 49.4352 35.0297 49.3824C35.0297 49.3296 34.7656 48.458 34.4222 47.4543C34.0261 46.2922 33.7884 44.9716 33.7884 43.968C33.7884 42.8851 33.6563 42.1984 33.3922 41.9342C33.1809 41.6965 32.6791 41.4588 32.2565 41.3796C31.8603 41.3268 30.7246 41.1683 29.7209 41.0627C28.2154 40.8778 27.8721 40.9306 27.6872 41.2475C27.5551 41.4588 27.4759 41.6965 27.4759 41.7758C27.5023 41.855 27.608 42.7266 27.7136 43.7567ZM34.792 59.6303C34.8977 59.8151 35.9277 59.9736 37.354 60C38.6482 60.0264 39.8367 60.0529 39.9952 60.0264C40.1272 60.0264 40.3385 58.8907 40.4442 57.5437C40.5498 56.0118 40.8668 54.4271 41.2894 53.265C41.6591 52.2349 41.9232 51.3897 41.8968 51.3369C41.8704 51.3105 40.8404 51.2577 39.599 51.2313C38.252 51.2048 37.1163 51.3105 36.7465 51.4954C36.4296 51.6538 35.9806 52.0764 35.7693 52.3934C35.558 52.7367 35.1882 53.9253 34.9769 55.0346C34.7656 56.1703 34.5807 57.5965 34.5807 58.204C34.5807 58.8379 34.66 59.4718 34.792 59.6303ZM35.109 44.9452C35.2146 45.7376 35.5315 46.9261 35.7957 47.56C36.0598 48.1939 36.588 48.9598 36.9578 49.2239C37.4332 49.5673 38.0671 49.6994 39.2028 49.6994C40.0744 49.6994 41.1309 49.6201 41.5799 49.5409L42.3722 49.3824C41.395 46.8733 41.0252 45.2622 40.946 44.1793C40.8139 42.7002 40.6819 42.1984 40.3121 42.0135C40.0744 41.8814 38.7538 41.8022 37.4068 41.8286L34.9769 41.9078C34.9241 43.1228 34.9769 44.1529 35.109 44.9452ZM41.8968 59.7095C42.0025 60.0264 42.4779 60.0793 44.0362 60.0529C45.1983 60.0264 46.2548 59.868 46.4925 59.6831C46.8359 59.419 46.9679 58.7058 47.0736 56.5665C47.1792 54.7176 47.3905 53.2914 47.7603 52.2613L48.3149 50.7558C46.1756 50.9671 45.1455 51.0992 44.6701 51.152C44.1418 51.2313 43.6136 51.5482 43.2702 51.9972C42.9797 52.3934 42.5835 53.3178 42.3722 54.0573C42.1874 54.7705 41.9761 56.2759 41.8968 57.3588C41.844 58.4417 41.844 59.4982 41.8968 59.7095ZM42.2666 44.6811C42.3987 45.6319 42.61 46.7412 42.742 47.1902C42.9005 47.6128 43.3231 48.2731 43.6928 48.6429C44.3003 49.2239 44.6173 49.3032 46.334 49.3032C47.3905 49.3032 48.3413 49.2504 48.4206 49.1711C48.5262 49.0919 48.3413 48.2995 48.0508 47.3751C47.7603 46.4771 47.4433 44.866 47.3377 43.8095C47.2585 42.753 47.0736 41.855 46.9679 41.7758C46.8623 41.6965 45.7266 41.6965 44.4324 41.7758C42.3458 41.8814 42.1081 41.9607 42.0553 42.4361C42.0553 42.7266 42.1345 43.7303 42.2666 44.6811ZM48.7375 59.3397C49.0016 59.4454 49.8204 59.4718 50.56 59.3661C51.2731 59.2605 52.0126 59.0492 52.1975 58.8643C52.4088 58.653 52.5673 57.4381 52.6201 55.51C52.6729 53.5291 52.8578 52.05 53.1483 51.2841L53.5973 50.0955C51.4315 50.3861 50.5335 50.703 50.1638 50.9671C49.794 51.2313 49.2922 51.8651 49.0281 52.367C48.7375 52.9744 48.5262 54.2422 48.3942 56.1967C48.2357 58.9171 48.2621 59.1548 48.7375 59.3397ZM48.7375 44.549C48.7904 44.8396 48.9488 45.6583 49.1073 46.3979C49.2394 47.111 49.6091 47.9562 49.8997 48.2467C50.4015 48.6957 50.6656 48.7485 52.0918 48.5901C52.9899 48.4844 53.7558 48.3259 53.7822 48.2467C53.835 48.1675 53.6766 47.5336 53.4389 46.8469C53.2276 46.1602 52.937 44.7075 52.7786 43.6246C52.6201 42.2512 52.3824 41.5381 52.0654 41.3004C51.7485 41.0626 51.2467 41.0098 50.4279 41.1155C49.7676 41.2211 49.0809 41.4324 48.896 41.5909C48.7111 41.7758 48.5791 42.3832 48.6055 42.9643C48.6055 43.5454 48.6847 44.2585 48.7375 44.549ZM54.0199 58.6266C54.152 58.653 54.9707 58.4945 55.8423 58.2833C56.7139 58.072 57.5327 57.755 57.6912 57.5965C57.8232 57.4645 57.9817 56.1175 57.9817 54.6384C58.0081 53.1593 58.1666 51.4161 58.3515 50.7558C58.5364 50.0955 58.7477 49.4088 58.8533 49.1975C58.9854 48.8806 58.8269 48.8542 58.0874 49.0127C57.5855 49.1183 56.6611 49.4352 56.0272 49.7258C55.2085 50.0955 54.7859 50.4917 54.4689 51.2048C54.1784 51.8651 53.9935 53.265 53.9143 55.4043C53.835 57.1739 53.8879 58.6266 54.0199 58.6266ZM54.0463 43.8887C54.0992 44.2585 54.3105 45.1565 54.5217 45.9225C54.7859 46.8733 55.1028 47.4015 55.499 47.6128C55.9744 47.8241 56.5026 47.7977 57.8232 47.4279C58.7741 47.1638 59.5664 46.9525 59.5928 46.9525C59.6457 46.9261 59.4344 46.4243 59.1438 45.7904C58.8533 45.1829 58.4835 44.1793 58.3515 43.5454C58.2194 42.9379 58.0874 42.0135 58.1138 41.5117C58.1138 41.0098 57.9553 40.4288 57.7704 40.2439C57.5327 40.0062 57.0309 39.9533 56.1065 40.0854C55.3669 40.1911 54.5746 40.508 54.3104 40.7721C54.0199 41.0626 53.8614 41.6173 53.8879 42.2248C53.9143 42.7794 53.9671 43.519 54.0463 43.8887ZM59.0646 56.2231L59.1438 57.3588C61.7058 56.4872 62.6038 56.0911 62.7887 55.9326C63.0264 55.7213 63.132 54.8761 63.1056 53.1329C63.1056 51.7595 63.2113 50.0163 63.3433 49.3032C63.4754 48.5636 63.6603 47.7713 63.7395 47.5072C63.898 47.0846 63.8188 47.0846 62.6302 47.4808C61.9435 47.7449 61.0983 48.1146 60.755 48.3524C60.3852 48.5901 59.9626 49.1183 59.7777 49.5673C59.5928 49.9899 59.3551 51.1784 59.2759 52.2085C59.1703 53.2122 59.091 54.295 59.0382 54.5856C59.0118 54.8761 59.0118 55.6156 59.0646 56.2231ZM59.408 43.2284C59.5136 43.8095 59.8041 44.7339 60.0418 45.2622C60.3852 46.0809 60.5965 46.2658 61.1776 46.2658C61.6002 46.2658 62.551 45.9489 63.2905 45.6055L64.6904 44.9452C64.0036 43.5982 63.6075 42.2248 63.3698 40.9834L62.9207 38.7384C61.336 38.7648 60.4908 38.9497 60.0683 39.161C59.3551 39.5043 59.2759 39.6628 59.2231 40.8514C59.1967 41.5645 59.2759 42.6474 59.408 43.2284ZM64.0565 54.6384C64.1093 54.9818 64.347 55.2459 64.5583 55.2459C64.7696 55.2459 65.2186 55.1138 65.5355 54.9553C65.8789 54.7705 66.4335 54.3743 66.8033 54.0309C67.358 53.5027 67.4372 53.2122 67.358 52.1557C67.3051 51.4426 67.4108 49.8842 67.5693 48.6429C67.7277 47.4015 67.939 46.1073 68.0711 45.764L68.256 45.1301C66.6184 45.8168 65.8789 46.2922 65.5619 46.6092C65.245 46.9261 64.796 47.9033 64.5847 48.7749C64.3734 49.6465 64.1357 51.1784 64.0829 52.2085C64.0036 53.2122 64.0036 54.3215 64.0565 54.6384ZM64.6375 41.9078C64.8752 42.8058 65.245 43.7567 65.4563 44.0208C65.7468 44.417 65.9845 44.4962 66.46 44.3377C66.7769 44.2321 67.5428 43.8623 68.1239 43.4926C68.705 43.1228 69.1804 42.7794 69.1804 42.7002C69.1804 42.621 68.9427 42.0927 68.6521 41.5117C68.3616 40.9306 67.9654 39.5572 67.7806 38.4743C67.6221 37.3914 67.3315 36.4934 67.1995 36.4934C67.041 36.4934 66.4335 36.7311 65.7997 37.0216C65.1922 37.3122 64.5583 37.7876 64.4262 38.0781C64.2678 38.3686 64.1621 38.9761 64.1885 39.4515C64.1885 39.9269 64.3998 41.0362 64.6375 41.9078ZM68.5465 52.7896C68.6257 53.0537 68.9163 53.0009 69.7086 52.6047C70.2897 52.3141 70.8707 51.8387 71.0292 51.5482C71.1613 51.2577 71.2933 49.9107 71.3198 48.5636C71.3198 47.2166 71.399 45.4999 71.5046 44.7339C71.6103 43.8887 71.5839 43.3605 71.4254 43.3605C71.2669 43.3605 70.7387 43.8095 70.2369 44.3641C69.7086 44.8924 69.0747 45.9225 68.837 46.662C68.5377 47.5424 68.3968 48.7309 68.4144 50.2276C68.4144 51.469 68.4673 52.6047 68.5465 52.7896ZM69.0747 40.059C69.286 40.6401 69.5237 41.3268 69.603 41.5645C69.6558 41.8286 69.8671 42.0399 70.0256 42.0399C70.2105 42.0399 70.8708 41.7758 71.4782 41.4324C72.2354 41.045 72.6139 40.6753 72.6139 40.3231C72.6139 40.0326 72.4555 39.2666 72.2442 38.6063C72.0329 37.946 71.7159 36.7311 71.5575 35.8859C71.4254 35.0671 71.2141 34.3804 71.082 34.3804C70.9764 34.3804 70.4217 34.6445 69.8407 34.9879C68.7842 35.569 68.7842 35.5954 68.7314 37.2857C68.6786 38.3422 68.8106 39.3987 69.0747 40.059ZM72.2706 50.1484C72.4291 50.3861 72.7196 50.3068 73.4591 49.8314C74.0138 49.4617 74.5156 48.907 74.5684 48.5636C74.6477 48.2467 74.7533 46.3715 74.8325 44.417L74.991 40.8514C74.0666 41.5117 73.4591 42.3304 73.0629 43.1228C72.4291 44.3113 72.297 44.9716 72.1913 47.1902C72.1121 48.6429 72.1385 49.9635 72.2706 50.1484ZM72.8252 37.3914C73.0893 38.5007 73.4327 39.2666 73.6704 39.3459C73.8817 39.3987 74.3043 39.3195 74.5948 39.161C74.8854 39.0025 75.3344 38.4743 75.5985 37.9989C75.9947 37.3121 76.0475 37.0216 75.8098 36.4934C75.6513 36.1236 75.3344 34.9879 75.1231 33.9842C74.9118 32.9542 74.7269 32.0298 74.7269 31.9241C74.7269 31.8185 74.2779 32.0562 73.7232 32.4523C73.195 32.8485 72.6668 33.2975 72.5611 33.456C72.4291 33.5881 72.3498 34.1427 72.3762 34.6445C72.3762 35.1464 72.5875 36.3877 72.8252 37.3914ZM76.3116 46.8469C76.7606 46.3715 77.2096 45.5527 77.3681 44.998C77.5002 44.4698 77.6322 42.7794 77.6322 41.2475L77.6322 38.4743C76.6021 39.9005 76.1796 40.7457 76.0739 41.2475C75.9418 41.7494 75.757 43.4133 75.6777 44.9452L75.5457 47.7185L76.3116 46.8469ZM76.4437 35.5425C76.6814 36.0972 76.9455 36.5462 77.0511 36.5198C77.1304 36.5198 77.5002 36.2293 77.8171 35.8859C78.3982 35.3048 78.4246 35.1992 78.1604 33.2975C78.002 32.2146 77.8435 30.7884 77.8171 30.1281L77.7379 28.9396C76.2852 30.8676 76.1531 31.2902 76.1003 32.7693C76.0475 33.8786 76.1796 34.8558 76.4437 35.5425ZM78.6623 42.9643C78.8207 42.8851 79.1905 42.1191 79.481 41.3004C79.798 40.4552 80.1149 38.7912 80.2206 37.6027C80.2998 36.3877 80.2998 35.4105 80.1942 35.4105C80.0885 35.4105 79.6659 36.0972 79.2962 36.9424C78.7415 38.1309 78.583 38.9761 78.5038 40.7985C78.4246 42.3304 78.4774 43.07 78.6623 42.9643ZM78.9264 33.1655L79.1113 34.2219C80.1942 31.8713 80.247 31.343 80.1942 28.4906L80.1149 25.2419C78.7679 27.9359 78.6623 28.4641 78.7151 30.1281C78.7151 31.2374 78.8207 32.5844 78.9264 33.1655ZM13.3983 19.5897C13.4776 19.801 13.7417 20.2236 13.953 20.5141C14.1907 20.8047 14.6661 21.2537 15.0095 21.4914C15.3792 21.7555 16.0923 21.9404 16.5942 21.9404C17.1224 21.9404 18.7864 21.6499 20.2918 21.2801C21.8237 20.9103 24.0159 20.3029 25.1781 19.9331C26.3402 19.5369 27.74 19.0087 28.2947 18.7445C28.8493 18.4804 29.3511 17.9786 29.4568 17.6617C29.5624 17.2127 29.404 16.8693 28.7173 16.2618C28.2154 15.8128 26.3402 14.8092 24.5178 13.9904C22.7217 13.1716 20.8201 12.4057 20.2918 12.3264C19.7372 12.1944 18.892 12.2736 18.1789 12.4849C17.4129 12.6962 16.4621 13.3301 15.4585 14.2809C14.5869 15.0997 13.7417 16.0769 13.5304 16.4731C13.3455 16.8693 13.187 17.6352 13.187 18.1899C13.187 18.7181 13.2927 19.352 13.3983 19.5897ZM23.6726 27.0379C25.2309 27.5661 27.8193 28.2264 29.404 28.517C31.0151 28.8339 33.8148 29.1773 35.6108 29.3093C37.4332 29.4414 39.0179 29.5206 39.1236 29.4414C39.2292 29.3886 39.3085 29.0188 39.3085 28.6226C39.3085 28.2264 39.0972 27.4077 38.833 26.8266C38.5689 26.2455 37.8294 25.3211 37.1691 24.7401L36.007 23.71C29.2719 23.9477 26.6571 24.159 25.8384 24.3175C25.046 24.5024 23.6462 24.8457 22.7482 25.1362C21.8237 25.4268 21.0314 25.7437 20.9521 25.8758C20.8993 26.0078 22.1143 26.5361 23.6726 27.0379ZM28.1626 10.372C28.9814 10.9002 30.2756 11.6397 30.9887 11.9831C31.7282 12.3528 33.0224 12.8547 33.894 13.1188C35.0297 13.4357 36.0862 13.5414 37.5917 13.4622C39.3877 13.3565 39.9952 13.198 41.4214 12.4321C42.3458 11.9303 43.8777 10.7681 44.855 9.87012C46.2548 8.52311 46.5189 8.12694 46.2284 7.88923C45.9907 7.65152 44.2739 7.57228 39.8895 7.57228C35.5315 7.5987 33.1809 7.70434 31.2528 8.0477C29.8001 8.2854 28.1626 8.60235 27.6344 8.708C27.0797 8.84006 26.6307 9.05136 26.6307 9.18342C26.6307 9.31548 27.3174 9.84372 28.1626 10.372ZM35.8221 19.3784C36.0598 19.6161 36.7465 20.0123 37.3276 20.25C37.9614 20.5406 39.0707 20.7254 40.1008 20.7254C41.3158 20.7254 42.1874 20.567 43.0854 20.1444C43.7985 19.8274 44.4324 19.3256 44.5644 18.9823C44.6965 18.6389 44.6965 18.1371 44.5908 17.8465C44.4852 17.556 44.0098 17.107 43.508 16.8165C42.9533 16.4731 41.9497 16.2618 40.7611 16.1826C39.7575 16.1298 38.4369 16.209 37.8558 16.3675C37.2747 16.5259 36.4824 16.9485 36.0862 17.3183C35.69 17.6881 35.3467 18.2163 35.3467 18.4804C35.3467 18.7445 35.558 19.1671 35.8221 19.3784ZM46.2548 27.2756C46.4397 27.9623 46.7038 28.649 46.8359 28.8075C47.0472 29.0452 48.1036 28.9132 51.0618 28.3321C53.254 27.8831 56.1065 27.1435 57.4006 26.6945C58.7212 26.2191 60.3324 25.5852 60.9663 25.2419C61.6266 24.8985 62.7623 24.2118 63.4754 23.71L64.796 22.7592C63.3697 22.5479 60.9927 22.2837 58.5892 22.046C56.2121 21.8083 52.9898 21.6763 51.458 21.7291C49.7676 21.8083 48.3942 21.9932 47.9188 22.2309C47.4962 22.4422 46.9415 22.9176 46.651 23.261C46.3869 23.6308 46.1227 24.3967 46.0435 24.9778C45.9907 25.5588 46.0699 26.5889 46.2548 27.2756ZM49.2658 15.5487C49.345 15.7336 49.7148 16.0505 50.1109 16.2354C50.4807 16.4467 52.0654 16.8165 53.5709 17.0278C55.1028 17.2655 58.2458 17.6352 60.5701 17.8729C62.8943 18.0842 65.1922 18.2427 65.6676 18.2427C66.2487 18.2427 66.5656 18.1107 66.6977 17.7937C66.7769 17.5296 66.7505 17.0278 66.6448 16.658C66.5392 16.3146 65.7468 15.2846 64.8488 14.413C63.9244 13.4886 62.4189 12.4057 61.3624 11.8774C60.3588 11.3492 58.4835 10.5304 57.2158 10.0814C55.948 9.63242 54.3897 9.26265 53.7822 9.26265C52.9106 9.26265 52.488 9.42112 51.8805 9.97577C51.458 10.3984 50.6656 11.4284 50.1109 12.3C49.5299 13.1716 49.0809 14.2017 49.1073 14.545C49.1073 14.9148 49.1865 15.3638 49.2658 15.5487Z" fill="#3C92E7"/>
<path opacity="0.98" fill-rule="evenodd" clip-rule="evenodd" d="M0.218757 67.2666L0.403641 68.059C0.694173 66.6328 0.773408 65.6027 0.773408 64.8896C0.773408 64.15 0.588525 63.3313 0.377229 63.0407C0.00746153 62.5653 -0.0189503 62.6974 0.00746171 64.4934C0.0338737 65.5763 0.113109 66.8176 0.218757 67.2666ZM0.377229 59.8713C0.720584 60.6108 0.720584 60.558 0.746996 58.5507C0.746996 57.3886 0.694172 55.9887 0.588524 55.4341C0.456465 54.6681 0.377229 54.5361 0.218757 54.9058C0.113109 55.17 0.00746135 56.2264 0.00746139 57.2301C0.00746144 58.2602 0.165933 59.4223 0.377229 59.8713ZM0.852645 74.2922C1.16959 75.2431 1.90912 76.7485 2.49019 77.5937C3.07125 78.4389 4.31261 79.918 5.26344 80.8688C6.21427 81.8196 7.87823 83.2195 8.96112 83.9326C10.044 84.6721 11.9985 85.8342 13.3191 86.4681C14.6397 87.1284 16.8847 88.1057 18.3374 88.6603C19.79 89.215 22.2992 89.9809 23.8839 90.3771C25.4686 90.7733 28.2154 91.3279 29.9586 91.5921C32.4678 91.9882 34.66 92.0939 40.3913 92.0675C46.7038 92.0675 48.1036 91.9882 51.0882 91.4864C52.9899 91.1695 55.6575 90.5884 57.0309 90.2186C58.4043 89.8489 60.6757 89.1093 62.0492 88.6075C63.4226 88.0793 65.6412 87.1284 66.9354 86.4681C68.2296 85.8342 70.2105 84.6721 71.2933 83.959C72.3762 83.2195 73.9874 81.8989 74.859 81.0009C75.7305 80.1293 76.8134 78.8879 77.2624 78.2276C77.7114 77.5673 78.4246 76.3788 78.8207 75.5864C79.2169 74.794 79.7188 73.2886 79.9036 72.2849C80.1149 71.2813 80.247 70.4097 80.2206 70.3832C80.1678 70.3304 79.8772 70.9907 79.5603 71.8359C79.2433 72.6547 78.3982 74.2394 77.685 75.3223C76.9719 76.4052 75.6249 78.0163 74.7005 78.8615C73.7761 79.7331 72.1121 81.0273 71.0292 81.7404C69.9463 82.4799 68.0447 83.5892 66.8033 84.1967C65.5619 84.8042 63.6075 85.7022 62.4453 86.1512C61.2832 86.6266 58.8005 87.3926 56.8988 87.868C54.9972 88.3698 52.0918 88.9773 50.4279 89.2414C47.998 89.6112 45.8586 89.7168 39.731 89.7168C32.8639 89.7168 31.7282 89.6376 28.638 89.0829C26.7364 88.766 23.831 88.0793 22.1671 87.6038C20.5031 87.102 17.7035 86.1248 15.9603 85.3852C14.2171 84.6457 11.7344 83.3779 10.4138 82.612C9.09318 81.8196 7.29716 80.5519 6.39916 79.7595C5.50115 78.9936 4.12773 77.5937 3.38819 76.6429C2.62225 75.6921 1.61859 74.0809 1.11676 73.0773C0.509289 71.7831 0.24517 71.4397 0.24517 71.8887C0.24517 72.2585 0.535701 73.3414 0.852645 74.2922ZM1.61859 71.0964C1.75065 71.5982 2.09401 72.3113 2.33171 72.6811C2.75431 73.315 2.75431 73.2886 2.91278 71.4926C3.01843 70.4625 3.1769 68.9306 3.28254 68.059C3.46743 66.5271 3.44102 66.4479 2.64866 65.6819C2.19965 65.2329 1.77706 64.9424 1.72424 65.0216C1.67142 65.1009 1.56577 66.2894 1.48653 67.6628C1.38088 69.1419 1.43371 70.5417 1.61859 71.0964ZM1.80347 61.456C1.90912 61.8786 2.19965 62.5653 2.43736 62.9615C2.67507 63.3841 2.91278 63.701 2.93919 63.701C2.99201 63.701 2.99201 62.7238 2.9656 61.5088C2.9656 60.3203 2.91278 58.9469 2.91278 58.4715C2.88636 57.996 2.62225 57.3357 2.27889 56.9396L1.69783 56.2793C1.645 59.6864 1.69783 61.007 1.80347 61.456ZM4.20696 74.2658C4.4975 75.0582 4.9465 75.9562 5.26344 76.2467L5.79168 76.7485C5.79168 73.9225 5.97656 72.9452 6.34633 72.1529C6.63686 71.4926 6.84816 70.6738 6.84816 70.3304C6.84816 69.9607 6.39916 69.2739 5.79168 68.6137C5.21062 68.0326 4.65597 67.5836 4.60314 67.6628C4.52391 67.7421 4.2862 68.508 4.0749 69.3796C3.86361 70.2512 3.67872 71.3869 3.67872 71.8887C3.70514 72.3906 3.91643 73.4735 4.20696 74.2658ZM4.20696 63.3048C4.2862 64.1764 4.49749 65.1273 4.65597 65.4178C4.81444 65.7083 5.23703 66.1573 5.63321 66.395C6.00298 66.6592 6.37274 66.8705 6.45198 66.8705C6.53122 66.8705 6.5048 66.712 6.39916 66.5271C6.31992 66.3686 6.16145 64.8896 6.08221 63.252C5.92374 60.4259 5.89733 60.2675 5.13138 59.5015C4.70879 59.0261 4.25979 58.6828 4.12773 58.6828C4.02208 58.6828 3.96926 59.3695 3.96926 60.1882C3.99567 61.0334 4.10132 62.4333 4.20696 63.3048ZM6.95381 77.9635C7.1651 78.3333 7.79899 78.8879 8.40647 79.2048C9.01394 79.5482 9.54218 79.7859 9.595 79.7331C9.64783 79.7067 9.83271 78.7558 9.99118 77.6201C10.1497 76.458 10.5722 75.0582 10.942 74.3186C11.4703 73.2886 11.5495 72.998 11.259 72.5754C11.1005 72.3113 10.3081 71.7567 9.54218 71.3341C8.80265 70.9115 8.0367 70.621 7.90464 70.7002C7.77258 70.7794 7.45563 71.4661 7.24434 72.2057C7.03304 72.9716 6.79534 74.4243 6.7161 75.4543C6.61045 76.8014 6.68969 77.4881 6.95381 77.9635ZM7.53487 66.8705C7.74617 67.5308 8.16876 68.3495 8.51211 68.6665C8.82906 69.0098 9.41012 69.4588 9.8063 69.6701C10.2289 69.8814 10.5458 69.9607 10.5458 69.8286C10.5458 69.723 10.4402 69.2211 10.2817 68.7193C10.1497 68.2175 9.99118 66.7648 9.96477 65.497C9.88553 63.4897 9.8063 63.1464 9.22524 62.5125C8.85547 62.1163 8.24799 61.6409 7.8254 61.4296L7.11228 61.0598C7.13869 64.6519 7.32357 66.2102 7.53487 66.8705ZM11.9193 81.2122C12.6852 81.9517 13.3719 82.4007 13.8209 82.4271C14.4284 82.4535 14.5076 82.3479 14.5076 81.5819C14.5076 81.1329 14.6397 80.0236 14.7982 79.152C14.9566 78.2804 15.3528 77.0655 15.7226 76.4316C16.1452 75.7185 16.2772 75.2166 16.1188 74.9789C15.9867 74.8205 15.1943 74.3715 14.3227 74.0281C13.2399 73.5791 12.6852 73.4734 12.3947 73.6583C12.1834 73.8168 11.7872 74.5035 11.5231 75.2166C11.259 75.9298 10.9684 77.3032 10.8892 78.2804L10.7307 80.05L11.9193 81.2122ZM11.0741 67.3987C11.1533 68.3495 11.4703 69.5645 11.7608 70.1455C12.0249 70.7002 12.5531 71.3605 12.9229 71.6246C13.2927 71.8623 14.0058 72.2057 14.5076 72.3906L15.432 72.7075C15.0887 71.3605 14.8774 70.1984 14.7453 69.2475C14.6397 68.2967 14.5076 67.0025 14.5076 66.3422C14.5076 65.1801 14.4548 65.1273 13.187 64.4141C12.4475 64.018 11.6287 63.701 11.3382 63.701C10.8892 63.701 10.81 63.8595 10.8364 64.6783C10.8628 65.2329 10.9684 66.4479 11.0741 67.3987ZM15.9867 83.4308C16.2508 83.5628 17.1752 83.959 17.994 84.3288C18.8392 84.6721 19.5787 84.9098 19.6051 84.8306C19.658 84.7514 19.8164 83.6156 19.9485 82.3215C20.1334 80.7632 20.4503 79.4426 20.8993 78.4917L21.586 77.0391C18.0732 75.6392 17.8884 75.6128 17.2809 75.9826C16.8847 76.2203 16.4621 76.8542 16.198 77.6201C15.9603 78.3068 15.7226 79.8387 15.6433 81.0273C15.5113 82.9289 15.5377 83.1931 15.9867 83.4308ZM15.9603 70.9643C16.1716 71.5454 16.6998 72.3641 17.1224 72.8132C17.545 73.2357 18.4958 73.896 19.2354 74.2658C19.9749 74.6356 20.6352 74.8733 20.688 74.794C20.7673 74.7148 20.6352 74.0545 20.4239 73.3414C20.2126 72.6019 19.9485 70.9115 19.8428 69.5381C19.6844 67.3987 19.5787 67.0289 19.1297 66.844C18.8392 66.7384 17.9676 66.395 17.2016 66.1045C16.0131 65.6291 15.8018 65.6027 15.6962 65.946C15.6169 66.1573 15.5641 67.1346 15.5641 68.1118C15.5905 69.0891 15.749 70.3833 15.9603 70.9643ZM21.3747 85.0947C21.6653 85.3852 22.5369 85.8078 23.2764 86.0191C24.0423 86.2568 24.9668 86.4153 25.3365 86.3625C25.9704 86.2833 25.9968 86.1776 26.1553 84.1703C26.2609 83.0082 26.4987 81.5819 26.71 81.0009C26.9212 80.4198 27.3174 79.601 27.608 79.2048C27.8721 78.8087 28.057 78.4389 27.9777 78.3861C27.8985 78.3332 26.9477 78.0955 25.8648 77.8578C24.7819 77.6201 23.6462 77.4352 23.3556 77.4088C23.0651 77.4088 22.5897 77.673 22.2992 77.9899C22.0086 78.3068 21.5596 79.469 21.2955 80.5783C21.0578 81.6876 20.8465 83.0346 20.8465 83.5628C20.8465 84.2231 21.0314 84.7514 21.3747 85.0947ZM21.0842 71.4926C21.1899 72.2057 21.5596 73.3942 21.9294 74.1337C22.5369 75.3751 22.6425 75.4808 24.148 75.9033C25.0196 76.1411 26.1553 76.3524 26.6571 76.3524L27.5815 76.3524C26.6043 73.4206 26.393 72.1793 26.4194 70.9643C26.4194 69.5381 26.3138 69.0098 25.9704 68.7193C25.7063 68.508 24.5442 68.1118 23.382 67.8741C22.1935 67.6364 21.1634 67.4779 21.0314 67.5572C20.9257 67.61 20.8465 68.2175 20.8729 68.9042C20.8993 69.5909 21.005 70.753 21.0842 71.4926ZM27.3703 86.4417C27.4231 86.6794 27.8457 86.9964 28.3211 87.1548C28.7965 87.3133 30.0643 87.4718 31.1472 87.5246L33.1281 87.6038C33.3922 84.3288 33.6035 82.8497 33.7884 82.1894C33.9732 81.5291 34.343 80.5519 34.6071 79.9972L35.109 79.02C31.5169 78.7294 30.302 78.6766 30.0907 78.703C29.8794 78.7558 29.3776 79.1256 28.955 79.5482C28.5588 79.9972 28.0041 81.1065 27.7136 82.1102C27.4231 83.0874 27.1854 84.3816 27.2118 84.9627C27.2382 85.5437 27.291 86.204 27.3703 86.4417ZM27.7136 71.7567C27.8193 72.7603 28.1362 74.1337 28.4003 74.7676C28.6908 75.4015 29.1927 76.1939 29.5624 76.5108C30.0907 76.9598 30.7246 77.1183 32.5998 77.2768C33.894 77.3824 35.0033 77.4352 35.0297 77.3824C35.0297 77.3296 34.7656 76.458 34.4222 75.4543C34.0261 74.2922 33.7884 72.9716 33.7884 71.968C33.7884 70.8851 33.6563 70.1984 33.3922 69.9342C33.1809 69.6965 32.6791 69.4588 32.2565 69.3796C31.8603 69.3268 30.7246 69.1683 29.7209 69.0627C28.2154 68.8778 27.8721 68.9306 27.6872 69.2475C27.5551 69.4588 27.4759 69.6965 27.4759 69.7758C27.5023 69.855 27.608 70.7266 27.7136 71.7567ZM34.792 87.6303C34.8977 87.8151 35.9277 87.9736 37.354 88C38.6482 88.0264 39.8367 88.0529 39.9952 88.0264C40.1272 88.0264 40.3385 86.8907 40.4442 85.5437C40.5498 84.0118 40.8668 82.4271 41.2894 81.265C41.6591 80.2349 41.9232 79.3897 41.8968 79.3369C41.8704 79.3105 40.8404 79.2577 39.599 79.2313C38.252 79.2048 37.1163 79.3105 36.7465 79.4954C36.4296 79.6538 35.9806 80.0764 35.7693 80.3934C35.558 80.7367 35.1882 81.9253 34.9769 83.0346C34.7656 84.1703 34.5807 85.5965 34.5807 86.204C34.5807 86.8379 34.66 87.4718 34.792 87.6303ZM35.109 72.9452C35.2146 73.7376 35.5315 74.9261 35.7957 75.56C36.0598 76.1939 36.588 76.9598 36.9578 77.2239C37.4332 77.5673 38.0671 77.6994 39.2028 77.6994C40.0744 77.6994 41.1309 77.6201 41.5799 77.5409L42.3722 77.3824C41.395 74.8733 41.0252 73.2622 40.946 72.1793C40.8139 70.7002 40.6819 70.1984 40.3121 70.0135C40.0744 69.8814 38.7538 69.8022 37.4068 69.8286L34.9769 69.9078C34.9241 71.1228 34.9769 72.1529 35.109 72.9452ZM41.8968 87.7095C42.0025 88.0264 42.4779 88.0793 44.0362 88.0529C45.1983 88.0264 46.2548 87.868 46.4925 87.6831C46.8359 87.419 46.9679 86.7058 47.0736 84.5665C47.1792 82.7176 47.3905 81.2914 47.7603 80.2613L48.3149 78.7558C46.1756 78.9671 45.1455 79.0992 44.6701 79.152C44.1418 79.2313 43.6136 79.5482 43.2702 79.9972C42.9797 80.3934 42.5835 81.3178 42.3722 82.0573C42.1874 82.7705 41.9761 84.2759 41.8968 85.3588C41.844 86.4417 41.844 87.4982 41.8968 87.7095ZM42.2666 72.6811C42.3987 73.6319 42.61 74.7412 42.742 75.1902C42.9005 75.6128 43.3231 76.2731 43.6928 76.6429C44.3003 77.2239 44.6173 77.3032 46.334 77.3032C47.3905 77.3032 48.3413 77.2504 48.4206 77.1711C48.5262 77.0919 48.3413 76.2995 48.0508 75.3751C47.7603 74.4771 47.4433 72.866 47.3377 71.8095C47.2585 70.753 47.0736 69.855 46.9679 69.7758C46.8623 69.6965 45.7266 69.6965 44.4324 69.7758C42.3458 69.8814 42.1081 69.9607 42.0553 70.4361C42.0553 70.7266 42.1345 71.7303 42.2666 72.6811ZM48.7375 87.3397C49.0016 87.4454 49.8204 87.4718 50.56 87.3661C51.2731 87.2605 52.0126 87.0492 52.1975 86.8643C52.4088 86.653 52.5673 85.4381 52.6201 83.51C52.6729 81.5291 52.8578 80.05 53.1483 79.2841L53.5973 78.0955C51.4315 78.3861 50.5335 78.703 50.1638 78.9671C49.794 79.2313 49.2922 79.8651 49.0281 80.367C48.7375 80.9744 48.5262 82.2422 48.3942 84.1967C48.2357 86.9171 48.2621 87.1548 48.7375 87.3397ZM48.7375 72.549C48.7904 72.8396 48.9488 73.6583 49.1073 74.3979C49.2394 75.111 49.6091 75.9562 49.8997 76.2467C50.4015 76.6957 50.6656 76.7485 52.0918 76.5901C52.9899 76.4844 53.7558 76.3259 53.7822 76.2467C53.835 76.1675 53.6766 75.5336 53.4389 74.8469C53.2276 74.1602 52.937 72.7075 52.7786 71.6246C52.6201 70.2512 52.3824 69.5381 52.0654 69.3004C51.7485 69.0626 51.2467 69.0098 50.4279 69.1155C49.7676 69.2211 49.0809 69.4324 48.896 69.5909C48.7111 69.7758 48.5791 70.3832 48.6055 70.9643C48.6055 71.5454 48.6847 72.2585 48.7375 72.549ZM54.0199 86.6266C54.152 86.653 54.9707 86.4945 55.8423 86.2833C56.7139 86.072 57.5327 85.755 57.6912 85.5965C57.8232 85.4645 57.9817 84.1175 57.9817 82.6384C58.0081 81.1593 58.1666 79.4161 58.3515 78.7558C58.5364 78.0955 58.7477 77.4088 58.8533 77.1975C58.9854 76.8806 58.8269 76.8542 58.0874 77.0127C57.5855 77.1183 56.6611 77.4352 56.0272 77.7258C55.2085 78.0955 54.7859 78.4917 54.4689 79.2048C54.1784 79.8651 53.9935 81.265 53.9143 83.4043C53.835 85.1739 53.8879 86.6266 54.0199 86.6266ZM54.0463 71.8887C54.0992 72.2585 54.3105 73.1565 54.5217 73.9225C54.7859 74.8733 55.1028 75.4015 55.499 75.6128C55.9744 75.8241 56.5026 75.7977 57.8232 75.4279C58.7741 75.1638 59.5664 74.9525 59.5928 74.9525C59.6457 74.9261 59.4344 74.4243 59.1438 73.7904C58.8533 73.1829 58.4835 72.1793 58.3515 71.5454C58.2194 70.9379 58.0874 70.0135 58.1138 69.5117C58.1138 69.0098 57.9553 68.4288 57.7704 68.2439C57.5327 68.0062 57.0309 67.9533 56.1065 68.0854C55.3669 68.1911 54.5746 68.508 54.3104 68.7721C54.0199 69.0626 53.8614 69.6173 53.8879 70.2248C53.9143 70.7794 53.9671 71.519 54.0463 71.8887ZM59.0646 84.2231L59.1438 85.3588C61.7058 84.4872 62.6038 84.0911 62.7887 83.9326C63.0264 83.7213 63.132 82.8761 63.1056 81.1329C63.1056 79.7595 63.2113 78.0163 63.3433 77.3032C63.4754 76.5636 63.6603 75.7713 63.7395 75.5072C63.898 75.0846 63.8188 75.0846 62.6302 75.4808C61.9435 75.7449 61.0983 76.1146 60.755 76.3524C60.3852 76.5901 59.9626 77.1183 59.7777 77.5673C59.5928 77.9899 59.3551 79.1784 59.2759 80.2085C59.1703 81.2122 59.091 82.295 59.0382 82.5856C59.0118 82.8761 59.0118 83.6156 59.0646 84.2231ZM59.408 71.2284C59.5136 71.8095 59.8041 72.7339 60.0418 73.2622C60.3852 74.0809 60.5965 74.2658 61.1776 74.2658C61.6002 74.2658 62.551 73.9489 63.2905 73.6055L64.6904 72.9452C64.0036 71.5982 63.6075 70.2248 63.3698 68.9834L62.9207 66.7384C61.336 66.7648 60.4908 66.9497 60.0683 67.161C59.3551 67.5043 59.2759 67.6628 59.2231 68.8514C59.1967 69.5645 59.2759 70.6474 59.408 71.2284ZM64.0565 82.6384C64.1093 82.9818 64.347 83.2459 64.5583 83.2459C64.7696 83.2459 65.2186 83.1138 65.5355 82.9553C65.8789 82.7705 66.4335 82.3743 66.8033 82.0309C67.358 81.5027 67.4372 81.2122 67.358 80.1557C67.3051 79.4426 67.4108 77.8842 67.5693 76.6429C67.7277 75.4015 67.939 74.1073 68.0711 73.764L68.256 73.1301C66.6184 73.8168 65.8789 74.2922 65.5619 74.6092C65.245 74.9261 64.796 75.9033 64.5847 76.7749C64.3734 77.6465 64.1357 79.1784 64.0829 80.2085C64.0036 81.2122 64.0036 82.3215 64.0565 82.6384ZM64.6375 69.9078C64.8752 70.8058 65.245 71.7567 65.4563 72.0208C65.7468 72.417 65.9845 72.4962 66.46 72.3377C66.7769 72.2321 67.5428 71.8623 68.1239 71.4926C68.705 71.1228 69.1804 70.7794 69.1804 70.7002C69.1804 70.621 68.9427 70.0927 68.6521 69.5117C68.3616 68.9306 67.9654 67.5572 67.7806 66.4743C67.6221 65.3914 67.3315 64.4934 67.1995 64.4934C67.041 64.4934 66.4335 64.7311 65.7997 65.0216C65.1922 65.3122 64.5583 65.7876 64.4262 66.0781C64.2678 66.3686 64.1621 66.9761 64.1885 67.4515C64.1885 67.9269 64.3998 69.0362 64.6375 69.9078ZM68.5465 80.7896C68.6257 81.0537 68.9163 81.0009 69.7086 80.6047C70.2897 80.3141 70.8707 79.8387 71.0292 79.5482C71.1613 79.2577 71.2933 77.9107 71.3198 76.5636C71.3198 75.2166 71.399 73.4999 71.5046 72.7339C71.6103 71.8887 71.5839 71.3605 71.4254 71.3605C71.2669 71.3605 70.7387 71.8095 70.2369 72.3641C69.7086 72.8924 69.0747 73.9225 68.837 74.662C68.5377 75.5424 68.3968 76.7309 68.4144 78.2276C68.4144 79.469 68.4673 80.6047 68.5465 80.7896ZM69.0747 68.059C69.286 68.6401 69.5237 69.3268 69.603 69.5645C69.6558 69.8286 69.8671 70.0399 70.0256 70.0399C70.2105 70.0399 70.8708 69.7758 71.4782 69.4324C72.2354 69.045 72.6139 68.6753 72.6139 68.3231C72.6139 68.0326 72.4555 67.2666 72.2442 66.6063C72.0329 65.946 71.7159 64.7311 71.5575 63.8859C71.4254 63.0671 71.2141 62.3804 71.082 62.3804C70.9764 62.3804 70.4217 62.6445 69.8407 62.9879C68.7842 63.569 68.7842 63.5954 68.7314 65.2857C68.6786 66.3422 68.8106 67.3987 69.0747 68.059ZM72.2706 78.1484C72.4291 78.3861 72.7196 78.3068 73.4591 77.8314C74.0138 77.4617 74.5156 76.907 74.5684 76.5636C74.6477 76.2467 74.7533 74.3715 74.8325 72.417L74.991 68.8514C74.0666 69.5117 73.4591 70.3304 73.0629 71.1228C72.4291 72.3113 72.297 72.9716 72.1913 75.1902C72.1121 76.6429 72.1385 77.9635 72.2706 78.1484ZM72.8252 65.3914C73.0893 66.5007 73.4327 67.2666 73.6704 67.3459C73.8817 67.3987 74.3043 67.3195 74.5948 67.161C74.8854 67.0025 75.3344 66.4743 75.5985 65.9989C75.9947 65.3121 76.0475 65.0216 75.8098 64.4934C75.6513 64.1236 75.3344 62.9879 75.1231 61.9842C74.9118 60.9542 74.7269 60.0298 74.7269 59.9241C74.7269 59.8185 74.2779 60.0562 73.7232 60.4523C73.195 60.8485 72.6668 61.2975 72.5611 61.456C72.4291 61.5881 72.3498 62.1427 72.3762 62.6445C72.3762 63.1464 72.5875 64.3877 72.8252 65.3914ZM76.3116 74.8469C76.7606 74.3715 77.2096 73.5527 77.3681 72.998C77.5002 72.4698 77.6322 70.7794 77.6322 69.2475L77.6322 66.4743C76.6021 67.9005 76.1796 68.7457 76.0739 69.2475C75.9418 69.7494 75.757 71.4133 75.6777 72.9452L75.5457 75.7185L76.3116 74.8469ZM76.4437 63.5425C76.6814 64.0972 76.9455 64.5462 77.0511 64.5198C77.1304 64.5198 77.5002 64.2293 77.8171 63.8859C78.3982 63.3048 78.4246 63.1992 78.1604 61.2975C78.002 60.2146 77.8435 58.7884 77.8171 58.1281L77.7379 56.9396C76.2852 58.8676 76.1531 59.2902 76.1003 60.7693C76.0475 61.8786 76.1796 62.8558 76.4437 63.5425ZM78.6623 70.9643C78.8207 70.8851 79.1905 70.1191 79.481 69.3004C79.798 68.4552 80.1149 66.7912 80.2206 65.6027C80.2998 64.3877 80.2998 63.4105 80.1942 63.4105C80.0885 63.4105 79.6659 64.0972 79.2962 64.9424C78.7415 66.1309 78.583 66.9761 78.5038 68.7985C78.4246 70.3304 78.4774 71.07 78.6623 70.9643ZM78.9264 61.1655L79.1113 62.2219C80.1942 59.8713 80.247 59.343 80.1942 56.4906L80.1149 53.2419C78.7679 55.9359 78.6623 56.4641 78.7151 58.1281C78.7151 59.2374 78.8207 60.5844 78.9264 61.1655Z" fill="#3C92E7"/>
<path opacity="0.98" fill-rule="evenodd" clip-rule="evenodd" d="M0.218757 95.2666L0.403641 96.059C0.694173 94.6328 0.773408 93.6027 0.773408 92.8896C0.773408 92.15 0.588525 91.3313 0.377229 91.0407C0.00746153 90.5653 -0.0189503 90.6974 0.00746171 92.4934C0.0338737 93.5763 0.113109 94.8176 0.218757 95.2666ZM0.377229 87.8713C0.720584 88.6108 0.720584 88.558 0.746996 86.5507C0.746996 85.3886 0.694172 83.9887 0.588524 83.4341C0.456465 82.6681 0.377229 82.5361 0.218757 82.9058C0.113109 83.17 0.00746135 84.2264 0.00746139 85.2301C0.00746144 86.2602 0.165933 87.4223 0.377229 87.8713ZM0.852645 102.292C1.16959 103.243 1.90912 104.749 2.49019 105.594C3.07125 106.439 4.31261 107.918 5.26344 108.869C6.21427 109.82 7.87823 111.219 8.96112 111.933C10.044 112.672 11.9985 113.834 13.3191 114.468C14.6397 115.128 16.8847 116.106 18.3374 116.66C19.79 117.215 22.2992 117.981 23.8839 118.377C25.4686 118.773 28.2154 119.328 29.9586 119.592C32.4678 119.988 34.66 120.094 40.3913 120.067C46.7038 120.067 48.1036 119.988 51.0882 119.486C52.9899 119.169 55.6575 118.588 57.0309 118.219C58.4043 117.849 60.6757 117.109 62.0492 116.608C63.4226 116.079 65.6412 115.128 66.9354 114.468C68.2296 113.834 70.2105 112.672 71.2933 111.959C72.3762 111.219 73.9874 109.899 74.859 109.001C75.7305 108.129 76.8134 106.888 77.2624 106.228C77.7114 105.567 78.4246 104.379 78.8207 103.586C79.2169 102.794 79.7188 101.289 79.9036 100.285C80.1149 99.2813 80.247 98.4097 80.2206 98.3832C80.1678 98.3304 79.8772 98.9907 79.5603 99.8359C79.2433 100.655 78.3982 102.239 77.685 103.322C76.9719 104.405 75.6249 106.016 74.7005 106.861C73.7761 107.733 72.1121 109.027 71.0292 109.74C69.9463 110.48 68.0447 111.589 66.8033 112.197C65.5619 112.804 63.6075 113.702 62.4453 114.151C61.2832 114.627 58.8005 115.393 56.8988 115.868C54.9972 116.37 52.0918 116.977 50.4279 117.241C47.998 117.611 45.8586 117.717 39.731 117.717C32.8639 117.717 31.7282 117.638 28.638 117.083C26.7364 116.766 23.831 116.079 22.1671 115.604C20.5031 115.102 17.7035 114.125 15.9603 113.385C14.2171 112.646 11.7344 111.378 10.4138 110.612C9.09318 109.82 7.29716 108.552 6.39916 107.759C5.50115 106.994 4.12773 105.594 3.38819 104.643C2.62225 103.692 1.61859 102.081 1.11676 101.077C0.509289 99.7831 0.24517 99.4397 0.24517 99.8887C0.24517 100.259 0.535701 101.341 0.852645 102.292ZM1.61859 99.0964C1.75065 99.5982 2.09401 100.311 2.33171 100.681C2.75431 101.315 2.75431 101.289 2.91278 99.4926C3.01843 98.4625 3.1769 96.9306 3.28254 96.059C3.46743 94.5271 3.44102 94.4479 2.64866 93.6819C2.19965 93.2329 1.77706 92.9424 1.72424 93.0216C1.67142 93.1009 1.56577 94.2894 1.48653 95.6628C1.38088 97.1419 1.43371 98.5417 1.61859 99.0964ZM1.80347 89.456C1.90912 89.8786 2.19965 90.5653 2.43736 90.9615C2.67507 91.3841 2.91278 91.701 2.93919 91.701C2.99201 91.701 2.99201 90.7238 2.9656 89.5088C2.9656 88.3203 2.91278 86.9469 2.91278 86.4715C2.88636 85.996 2.62225 85.3357 2.27889 84.9396L1.69783 84.2793C1.645 87.6864 1.69783 89.007 1.80347 89.456ZM4.20696 102.266C4.4975 103.058 4.9465 103.956 5.26344 104.247L5.79168 104.749C5.79168 101.922 5.97656 100.945 6.34633 100.153C6.63686 99.4926 6.84816 98.6738 6.84816 98.3304C6.84816 97.9607 6.39916 97.2739 5.79168 96.6137C5.21062 96.0326 4.65597 95.5836 4.60314 95.6628C4.52391 95.7421 4.2862 96.508 4.0749 97.3796C3.86361 98.2512 3.67872 99.3869 3.67872 99.8887C3.70514 100.391 3.91643 101.473 4.20696 102.266ZM4.20696 91.3048C4.2862 92.1764 4.49749 93.1273 4.65597 93.4178C4.81444 93.7083 5.23703 94.1573 5.63321 94.395C6.00298 94.6592 6.37274 94.8705 6.45198 94.8705C6.53122 94.8705 6.5048 94.712 6.39916 94.5271C6.31992 94.3686 6.16145 92.8896 6.08221 91.252C5.92374 88.4259 5.89733 88.2675 5.13138 87.5015C4.70879 87.0261 4.25979 86.6828 4.12773 86.6828C4.02208 86.6828 3.96926 87.3695 3.96926 88.1882C3.99567 89.0334 4.10132 90.4333 4.20696 91.3048ZM6.95381 105.963C7.1651 106.333 7.79899 106.888 8.40647 107.205C9.01394 107.548 9.54218 107.786 9.595 107.733C9.64783 107.707 9.83271 106.756 9.99118 105.62C10.1497 104.458 10.5722 103.058 10.942 102.319C11.4703 101.289 11.5495 100.998 11.259 100.575C11.1005 100.311 10.3081 99.7567 9.54218 99.3341C8.80265 98.9115 8.0367 98.621 7.90464 98.7002C7.77258 98.7794 7.45563 99.4661 7.24434 100.206C7.03304 100.972 6.79534 102.424 6.7161 103.454C6.61045 104.801 6.68969 105.488 6.95381 105.963ZM7.53487 94.8705C7.74617 95.5308 8.16876 96.3495 8.51211 96.6665C8.82906 97.0098 9.41012 97.4588 9.8063 97.6701C10.2289 97.8814 10.5458 97.9607 10.5458 97.8286C10.5458 97.723 10.4402 97.2211 10.2817 96.7193C10.1497 96.2175 9.99118 94.7648 9.96477 93.497C9.88553 91.4897 9.8063 91.1464 9.22524 90.5125C8.85547 90.1163 8.24799 89.6409 7.8254 89.4296L7.11228 89.0598C7.13869 92.6519 7.32357 94.2102 7.53487 94.8705ZM11.9193 109.212C12.6852 109.952 13.3719 110.401 13.8209 110.427C14.4284 110.454 14.5076 110.348 14.5076 109.582C14.5076 109.133 14.6397 108.024 14.7982 107.152C14.9566 106.28 15.3528 105.065 15.7226 104.432C16.1452 103.718 16.2772 103.217 16.1188 102.979C15.9867 102.82 15.1943 102.371 14.3227 102.028C13.2399 101.579 12.6852 101.473 12.3947 101.658C12.1834 101.817 11.7872 102.504 11.5231 103.217C11.259 103.93 10.9684 105.303 10.8892 106.28L10.7307 108.05L11.9193 109.212ZM11.0741 95.3987C11.1533 96.3495 11.4703 97.5645 11.7608 98.1455C12.0249 98.7002 12.5531 99.3605 12.9229 99.6246C13.2927 99.8623 14.0058 100.206 14.5076 100.391L15.432 100.708C15.0887 99.3605 14.8774 98.1984 14.7453 97.2475C14.6397 96.2967 14.5076 95.0025 14.5076 94.3422C14.5076 93.1801 14.4548 93.1273 13.187 92.4141C12.4475 92.018 11.6287 91.701 11.3382 91.701C10.8892 91.701 10.81 91.8595 10.8364 92.6783C10.8628 93.2329 10.9684 94.4479 11.0741 95.3987ZM15.9867 111.431C16.2508 111.563 17.1752 111.959 17.994 112.329C18.8392 112.672 19.5787 112.91 19.6051 112.831C19.658 112.751 19.8164 111.616 19.9485 110.321C20.1334 108.763 20.4503 107.443 20.8993 106.492L21.586 105.039C18.0732 103.639 17.8884 103.613 17.2809 103.983C16.8847 104.22 16.4621 104.854 16.198 105.62C15.9603 106.307 15.7226 107.839 15.6433 109.027C15.5113 110.929 15.5377 111.193 15.9867 111.431ZM15.9603 98.9643C16.1716 99.5454 16.6998 100.364 17.1224 100.813C17.545 101.236 18.4958 101.896 19.2354 102.266C19.9749 102.636 20.6352 102.873 20.688 102.794C20.7673 102.715 20.6352 102.055 20.4239 101.341C20.2126 100.602 19.9485 98.9115 19.8428 97.5381C19.6844 95.3987 19.5787 95.0289 19.1297 94.844C18.8392 94.7384 17.9676 94.395 17.2016 94.1045C16.0131 93.6291 15.8018 93.6027 15.6962 93.946C15.6169 94.1573 15.5641 95.1346 15.5641 96.1118C15.5905 97.0891 15.749 98.3833 15.9603 98.9643ZM21.3747 113.095C21.6653 113.385 22.5369 113.808 23.2764 114.019C24.0423 114.257 24.9668 114.415 25.3365 114.362C25.9704 114.283 25.9968 114.178 26.1553 112.17C26.2609 111.008 26.4987 109.582 26.71 109.001C26.9212 108.42 27.3174 107.601 27.608 107.205C27.8721 106.809 28.057 106.439 27.9777 106.386C27.8985 106.333 26.9477 106.096 25.8648 105.858C24.7819 105.62 23.6462 105.435 23.3556 105.409C23.0651 105.409 22.5897 105.673 22.2992 105.99C22.0086 106.307 21.5596 107.469 21.2955 108.578C21.0578 109.688 20.8465 111.035 20.8465 111.563C20.8465 112.223 21.0314 112.751 21.3747 113.095ZM21.0842 99.4926C21.1899 100.206 21.5596 101.394 21.9294 102.134C22.5369 103.375 22.6425 103.481 24.148 103.903C25.0196 104.141 26.1553 104.352 26.6571 104.352L27.5815 104.352C26.6043 101.421 26.393 100.179 26.4194 98.9643C26.4194 97.5381 26.3138 97.0098 25.9704 96.7193C25.7063 96.508 24.5442 96.1118 23.382 95.8741C22.1935 95.6364 21.1634 95.4779 21.0314 95.5572C20.9257 95.61 20.8465 96.2175 20.8729 96.9042C20.8993 97.5909 21.005 98.753 21.0842 99.4926ZM27.3703 114.442C27.4231 114.679 27.8457 114.996 28.3211 115.155C28.7965 115.313 30.0643 115.472 31.1472 115.525L33.1281 115.604C33.3922 112.329 33.6035 110.85 33.7884 110.189C33.9732 109.529 34.343 108.552 34.6071 107.997L35.109 107.02C31.5169 106.729 30.302 106.677 30.0907 106.703C29.8794 106.756 29.3776 107.126 28.955 107.548C28.5588 107.997 28.0041 109.107 27.7136 110.11C27.4231 111.087 27.1854 112.382 27.2118 112.963C27.2382 113.544 27.291 114.204 27.3703 114.442ZM27.7136 99.7567C27.8193 100.76 28.1362 102.134 28.4003 102.768C28.6908 103.402 29.1927 104.194 29.5624 104.511C30.0907 104.96 30.7246 105.118 32.5998 105.277C33.894 105.382 35.0033 105.435 35.0297 105.382C35.0297 105.33 34.7656 104.458 34.4222 103.454C34.0261 102.292 33.7884 100.972 33.7884 99.968C33.7884 98.8851 33.6563 98.1984 33.3922 97.9342C33.1809 97.6965 32.6791 97.4588 32.2565 97.3796C31.8603 97.3268 30.7246 97.1683 29.7209 97.0627C28.2154 96.8778 27.8721 96.9306 27.6872 97.2475C27.5551 97.4588 27.4759 97.6965 27.4759 97.7758C27.5023 97.855 27.608 98.7266 27.7136 99.7567ZM34.792 115.63C34.8977 115.815 35.9277 115.974 37.354 116C38.6482 116.026 39.8367 116.053 39.9952 116.026C40.1272 116.026 40.3385 114.891 40.4442 113.544C40.5498 112.012 40.8668 110.427 41.2894 109.265C41.6591 108.235 41.9232 107.39 41.8968 107.337C41.8704 107.31 40.8404 107.258 39.599 107.231C38.252 107.205 37.1163 107.31 36.7465 107.495C36.4296 107.654 35.9806 108.076 35.7693 108.393C35.558 108.737 35.1882 109.925 34.9769 111.035C34.7656 112.17 34.5807 113.597 34.5807 114.204C34.5807 114.838 34.66 115.472 34.792 115.63ZM35.109 100.945C35.2146 101.738 35.5315 102.926 35.7957 103.56C36.0598 104.194 36.588 104.96 36.9578 105.224C37.4332 105.567 38.0671 105.699 39.2028 105.699C40.0744 105.699 41.1309 105.62 41.5799 105.541L42.3722 105.382C41.395 102.873 41.0252 101.262 40.946 100.179C40.8139 98.7002 40.6819 98.1984 40.3121 98.0135C40.0744 97.8814 38.7538 97.8022 37.4068 97.8286L34.9769 97.9078C34.9241 99.1228 34.9769 100.153 35.109 100.945ZM41.8968 115.709C42.0025 116.026 42.4779 116.079 44.0362 116.053C45.1983 116.026 46.2548 115.868 46.4925 115.683C46.8359 115.419 46.9679 114.706 47.0736 112.566C47.1792 110.718 47.3905 109.291 47.7603 108.261L48.3149 106.756C46.1756 106.967 45.1455 107.099 44.6701 107.152C44.1418 107.231 43.6136 107.548 43.2702 107.997C42.9797 108.393 42.5835 109.318 42.3722 110.057C42.1874 110.77 41.9761 112.276 41.8968 113.359C41.844 114.442 41.844 115.498 41.8968 115.709ZM42.2666 100.681C42.3987 101.632 42.61 102.741 42.742 103.19C42.9005 103.613 43.3231 104.273 43.6928 104.643C44.3003 105.224 44.6173 105.303 46.334 105.303C47.3905 105.303 48.3413 105.25 48.4206 105.171C48.5262 105.092 48.3413 104.3 48.0508 103.375C47.7603 102.477 47.4433 100.866 47.3377 99.8095C47.2585 98.753 47.0736 97.855 46.9679 97.7758C46.8623 97.6965 45.7266 97.6965 44.4324 97.7758C42.3458 97.8814 42.1081 97.9607 42.0553 98.4361C42.0553 98.7266 42.1345 99.7303 42.2666 100.681ZM48.7375 115.34C49.0016 115.445 49.8204 115.472 50.56 115.366C51.2731 115.26 52.0126 115.049 52.1975 114.864C52.4088 114.653 52.5673 113.438 52.6201 111.51C52.6729 109.529 52.8578 108.05 53.1483 107.284L53.5973 106.096C51.4315 106.386 50.5335 106.703 50.1638 106.967C49.794 107.231 49.2922 107.865 49.0281 108.367C48.7375 108.974 48.5262 110.242 48.3942 112.197C48.2357 114.917 48.2621 115.155 48.7375 115.34ZM48.7375 100.549C48.7904 100.84 48.9488 101.658 49.1073 102.398C49.2394 103.111 49.6091 103.956 49.8997 104.247C50.4015 104.696 50.6656 104.749 52.0918 104.59C52.9899 104.484 53.7558 104.326 53.7822 104.247C53.835 104.167 53.6766 103.534 53.4389 102.847C53.2276 102.16 52.937 100.708 52.7786 99.6246C52.6201 98.2512 52.3824 97.5381 52.0654 97.3004C51.7485 97.0626 51.2467 97.0098 50.4279 97.1155C49.7676 97.2211 49.0809 97.4324 48.896 97.5909C48.7111 97.7758 48.5791 98.3832 48.6055 98.9643C48.6055 99.5454 48.6847 100.258 48.7375 100.549ZM54.0199 114.627C54.152 114.653 54.9707 114.495 55.8423 114.283C56.7139 114.072 57.5327 113.755 57.6912 113.597C57.8232 113.464 57.9817 112.117 57.9817 110.638C58.0081 109.159 58.1666 107.416 58.3515 106.756C58.5364 106.096 58.7477 105.409 58.8533 105.198C58.9854 104.881 58.8269 104.854 58.0874 105.013C57.5855 105.118 56.6611 105.435 56.0272 105.726C55.2085 106.096 54.7859 106.492 54.4689 107.205C54.1784 107.865 53.9935 109.265 53.9143 111.404C53.835 113.174 53.8879 114.627 54.0199 114.627ZM54.0463 99.8887C54.0992 100.258 54.3105 101.157 54.5217 101.922C54.7859 102.873 55.1028 103.402 55.499 103.613C55.9744 103.824 56.5026 103.798 57.8232 103.428C58.7741 103.164 59.5664 102.953 59.5928 102.953C59.6457 102.926 59.4344 102.424 59.1438 101.79C58.8533 101.183 58.4835 100.179 58.3515 99.5454C58.2194 98.9379 58.0874 98.0135 58.1138 97.5117C58.1138 97.0098 57.9553 96.4288 57.7704 96.2439C57.5327 96.0062 57.0309 95.9533 56.1065 96.0854C55.3669 96.1911 54.5746 96.508 54.3104 96.7721C54.0199 97.0626 53.8614 97.6173 53.8879 98.2248C53.9143 98.7794 53.9671 99.519 54.0463 99.8887ZM59.0646 112.223L59.1438 113.359C61.7058 112.487 62.6038 112.091 62.7887 111.933C63.0264 111.721 63.132 110.876 63.1056 109.133C63.1056 107.759 63.2113 106.016 63.3433 105.303C63.4754 104.564 63.6603 103.771 63.7395 103.507C63.898 103.085 63.8188 103.085 62.6302 103.481C61.9435 103.745 61.0983 104.115 60.755 104.352C60.3852 104.59 59.9626 105.118 59.7777 105.567C59.5928 105.99 59.3551 107.178 59.2759 108.208C59.1703 109.212 59.091 110.295 59.0382 110.586C59.0118 110.876 59.0118 111.616 59.0646 112.223ZM59.408 99.2284C59.5136 99.8095 59.8041 100.734 60.0418 101.262C60.3852 102.081 60.5965 102.266 61.1776 102.266C61.6002 102.266 62.551 101.949 63.2905 101.606L64.6904 100.945C64.0036 99.5982 63.6075 98.2248 63.3698 96.9834L62.9207 94.7384C61.336 94.7648 60.4908 94.9497 60.0683 95.161C59.3551 95.5043 59.2759 95.6628 59.2231 96.8514C59.1967 97.5645 59.2759 98.6474 59.408 99.2284ZM64.0565 110.638C64.1093 110.982 64.347 111.246 64.5583 111.246C64.7696 111.246 65.2186 111.114 65.5355 110.955C65.8789 110.77 66.4335 110.374 66.8033 110.031C67.358 109.503 67.4372 109.212 67.358 108.156C67.3051 107.443 67.4108 105.884 67.5693 104.643C67.7277 103.402 67.939 102.107 68.0711 101.764L68.256 101.13C66.6184 101.817 65.8789 102.292 65.5619 102.609C65.245 102.926 64.796 103.903 64.5847 104.775C64.3734 105.647 64.1357 107.178 64.0829 108.208C64.0036 109.212 64.0036 110.321 64.0565 110.638ZM64.6375 97.9078C64.8752 98.8058 65.245 99.7567 65.4563 100.021C65.7468 100.417 65.9845 100.496 66.46 100.338C66.7769 100.232 67.5428 99.8623 68.1239 99.4926C68.705 99.1228 69.1804 98.7794 69.1804 98.7002C69.1804 98.621 68.9427 98.0927 68.6521 97.5117C68.3616 96.9306 67.9654 95.5572 67.7806 94.4743C67.6221 93.3914 67.3315 92.4934 67.1995 92.4934C67.041 92.4934 66.4335 92.7311 65.7997 93.0216C65.1922 93.3122 64.5583 93.7876 64.4262 94.0781C64.2678 94.3686 64.1621 94.9761 64.1885 95.4515C64.1885 95.9269 64.3998 97.0362 64.6375 97.9078ZM68.5465 108.79C68.6257 109.054 68.9163 109.001 69.7086 108.605C70.2897 108.314 70.8707 107.839 71.0292 107.548C71.1613 107.258 71.2933 105.911 71.3198 104.564C71.3198 103.217 71.399 101.5 71.5046 100.734C71.6103 99.8887 71.5839 99.3605 71.4254 99.3605C71.2669 99.3605 70.7387 99.8095 70.2369 100.364C69.7086 100.892 69.0747 101.922 68.837 102.662C68.5377 103.542 68.3968 104.731 68.4144 106.228C68.4144 107.469 68.4673 108.605 68.5465 108.79ZM69.0747 96.059C69.286 96.6401 69.5237 97.3268 69.603 97.5645C69.6558 97.8286 69.8671 98.0399 70.0256 98.0399C70.2105 98.0399 70.8708 97.7758 71.4782 97.4324C72.2354 97.045 72.6139 96.6753 72.6139 96.3231C72.6139 96.0326 72.4555 95.2666 72.2442 94.6063C72.0329 93.946 71.7159 92.7311 71.5575 91.8859C71.4254 91.0671 71.2141 90.3804 71.082 90.3804C70.9764 90.3804 70.4217 90.6445 69.8407 90.9879C68.7842 91.569 68.7842 91.5954 68.7314 93.2857C68.6786 94.3422 68.8106 95.3987 69.0747 96.059ZM72.2706 106.148C72.4291 106.386 72.7196 106.307 73.4591 105.831C74.0138 105.462 74.5156 104.907 74.5684 104.564C74.6477 104.247 74.7533 102.371 74.8325 100.417L74.991 96.8514C74.0666 97.5117 73.4591 98.3304 73.0629 99.1228C72.4291 100.311 72.297 100.972 72.1913 103.19C72.1121 104.643 72.1385 105.963 72.2706 106.148ZM72.8252 93.3914C73.0893 94.5007 73.4327 95.2666 73.6704 95.3459C73.8817 95.3987 74.3043 95.3195 74.5948 95.161C74.8854 95.0025 75.3344 94.4743 75.5985 93.9989C75.9947 93.3121 76.0475 93.0216 75.8098 92.4934C75.6513 92.1236 75.3344 90.9879 75.1231 89.9842C74.9118 88.9542 74.7269 88.0298 74.7269 87.9241C74.7269 87.8185 74.2779 88.0562 73.7232 88.4523C73.195 88.8485 72.6668 89.2975 72.5611 89.456C72.4291 89.5881 72.3498 90.1427 72.3762 90.6445C72.3762 91.1464 72.5875 92.3877 72.8252 93.3914ZM76.3116 102.847C76.7606 102.371 77.2096 101.553 77.3681 100.998C77.5002 100.47 77.6322 98.7794 77.6322 97.2475L77.6322 94.4743C76.6021 95.9005 76.1796 96.7457 76.0739 97.2475C75.9418 97.7494 75.757 99.4133 75.6777 100.945L75.5457 103.718L76.3116 102.847ZM76.4437 91.5425C76.6814 92.0972 76.9455 92.5462 77.0511 92.5198C77.1304 92.5198 77.5002 92.2293 77.8171 91.8859C78.3982 91.3048 78.4246 91.1992 78.1604 89.2975C78.002 88.2146 77.8435 86.7884 77.8171 86.1281L77.7379 84.9396C76.2852 86.8676 76.1531 87.2902 76.1003 88.7693C76.0475 89.8786 76.1796 90.8558 76.4437 91.5425ZM78.6623 98.9643C78.8207 98.8851 79.1905 98.1191 79.481 97.3004C79.798 96.4552 80.1149 94.7912 80.2206 93.6027C80.2998 92.3877 80.2998 91.4105 80.1942 91.4105C80.0885 91.4105 79.6659 92.0972 79.2962 92.9424C78.7415 94.1309 78.583 94.9761 78.5038 96.7985C78.4246 98.3304 78.4774 99.07 78.6623 98.9643ZM78.9264 89.1655L79.1113 90.2219C80.1942 87.8713 80.247 87.343 80.1942 84.4906L80.1149 81.2419C78.7679 83.9359 78.6623 84.4641 78.7151 86.1281C78.7151 87.2374 78.8207 88.5844 78.9264 89.1655Z" fill="#3C92E7"/>
</svg>
