<svg width="240" height="240" viewBox="0 0 240 240" fill="none" xmlns="http://www.w3.org/2000/svg">
<path d="M110.6 40.3C110.9 42.6 111.7 46.1 112.2 48C112.8 49.9 114.3 53.5 115.6 56C116.8 58.5 119.6 62.3 121.7 64.4C123.8 66.5 127.3 69.4 129.5 70.8C131.7 72.2 136 74.1 139 75.2C143.1 76.6 147.4 77 156.3 77H168C168.5 102.9 168.7 103.8 171.8 110.3C173.7 114.4 177.1 119 180.3 122.1C183.1 125 187.1 128.1 189 129C190.9 130 195 131.5 198 132.4C201 133.3 204.7 134 206.3 134H209L209.1 40.5L204.5 36H110L110.6 40.3ZM21 129.3C21 131.1 21.6 134.6 22.4 137.1C23.1 139.5 24.8 143.6 26 146.1C27.3 148.5 30.5 152.7 33.2 155.3C35.8 157.9 41 161.5 44.7 163.3C51.2 166.4 52.1 166.6 64.7 166.8L78 167.1C78 179.8 78.5 186.2 79 189.6C79.6 192.9 81.1 197.9 82.5 200.8C83.9 203.7 87.1 208.3 89.7 211.1C92.4 213.9 96.5 217.3 99 218.7C101.5 220 105.7 221.8 108.5 222.6C111.2 223.4 115 224.1 116.7 224.1H120C120 142.2 119.7 132.5 118.6 130.3C117.9 128.8 116.5 127.2 115.6 126.8C114.7 126.4 93.1 126.1 67.5 126.1H21V129.3ZM66 84.8C66 86.8 66.8 91 67.8 94C68.8 97 71 101.5 72.7 104C74.4 106.5 77.1 109.7 78.6 111.1C80.2 112.6 83.3 114.9 85.5 116.2C87.7 117.6 91.7 119.4 94.5 120.3C98 121.5 102.9 122 111.2 122H123C123 138.4 123.6 144.9 124.6 148.5C125.4 151.8 127.3 156.5 128.8 158.9C130.3 161.4 133.5 165.3 136 167.7C138.5 170.2 142.7 173.2 145.5 174.6C148.2 175.9 153 177.5 156 178.2C159 178.8 162.3 179 163.2 178.7C164.9 178 165 175 165 133.5C165 103.6 164.6 88.1 163.9 86.3C163.3 84.7 162.1 83 161.1 82.3C159.9 81.4 147.9 81.1 112.7 81H66V84.8Z" fill="#233475"/>
</svg>
