<svg width="54" height="67" viewBox="0 0 54 67" fill="none" xmlns="http://www.w3.org/2000/svg">
<path d="M33.3145 0.0712891H6.91445C3.28445 0.0712891 0.347454 3.04129 0.347454 6.67129L0.314453 59.4713C0.314453 63.1013 3.25145 66.0713 6.88145 66.0713H46.5145C50.1445 66.0713 53.1145 63.1013 53.1145 59.4713V19.8713L33.3145 0.0712891ZM36.6145 33.0713H23.4145V36.3713H33.3145C35.1295 36.3713 36.6145 37.8563 36.6145 39.6713V49.5713C36.6145 51.3863 35.1295 52.8713 33.3145 52.8713H30.0145V56.1713H23.4145V52.8713H16.8145V46.2713H30.0145V42.9713H20.1145C18.2995 42.9713 16.8145 41.4863 16.8145 39.6713V29.7713C16.8145 27.9563 18.2995 26.4713 20.1145 26.4713H23.4145V23.1713H30.0145V26.4713H36.6145V33.0713ZM30.0145 19.8713V5.02129L44.8645 19.8713H30.0145Z" fill="#3C92E7"/>
</svg>
